<?xml version="1.0" standalone="no"?>
<!DOCTYPE svg PUBLIC "-//W3C//DTD SVG 1.1//EN" "http://www.w3.org/Graphics/SVG/1.1/DTD/svg11.dtd">
<svg width="100%" height="100%" viewBox="0 0 500 500" version="1.1" xmlns="http://www.w3.org/2000/svg" xmlns:xlink="http://www.w3.org/1999/xlink" xml:space="preserve" style="fill-rule:evenodd;clip-rule:evenodd;stroke-linecap:round;stroke-linejoin:round;stroke-miterlimit:1.41421;">
    <g transform="matrix(1,0,0,1,-390,-150)">
        <g transform="matrix(0.950413,-8.47394e-18,-8.47394e-18,0.985011,-10.0826,-81.1777)">
            <ellipse cx="684" cy="488.5" rx="242" ry="233.5" style="fill:none;stroke-width:15.5px;stroke:black;"/>
        </g>
        <g transform="matrix(0.999998,0,0,1,252.948,7.84787)">
            <path d="M362.368,402.568C362.368,444.328 335.008,467.368 297.856,467.368C260.704,467.368 232.768,440.872 232.768,402.568L218.368,402.568C218.368,449.512 252.064,481.768 297.856,481.768C343.648,481.768 377.632,452.104 377.632,402.568L377.632,277L285.184,277L285.184,290.536L362.368,290.536L362.368,402.568Z" style="fill:black;fill-rule:nonzero;"/>
        </g>
        <g transform="matrix(0.999998,0,0,1,252.948,7.84787)">
            <path d="M421.984,277L421.984,478.6L551.008,478.6L551.008,463.912L437.536,463.912L437.536,277L421.984,277Z" style="fill:black;fill-rule:nonzero;"/>
        </g>
        <g transform="matrix(1,0,0,1,496.39,555.4)">
            <text x="0px" y="0px" style="font-family:'NexaLight';font-size:72px;fill:black;">web d</text>
        </g>
        <g transform="matrix(1,0,0,1,703.822,555.4)">
            <text x="0px" y="0px" style="font-family:'NexaLight';font-size:72px;fill:black;">e<tspan x="41.976px " y="0px ">v</tspan></text>
        </g>
    </g>
</svg>
